# xmcd
#
# Track frame offsets:
#	200
#	12725
#	27090
#	44175
#	56567
#	68992
#	85482
#	96777
#	111597
#	125840
#	139717
#	155567
#
# Disc length: 2281 seconds
#
# Revision: 1
# Processed by: cddbd v1.5.2PL0 Copyright (c) Steve Scherf et al.
# Submitted via: audiograbber 1.83.01
#
DISCID=b608e70c
DTITLE=Matt Caldwell - The List
DYEAR=1997
DGENRE=Country
TTITLE0=Somebody's Gonna Fall in Love
TTITLE1=Smack Dab (in the Middle of Love)
TTITLE2=The List
TTITLE3=Bingo...Bull's Eye
TTITLE4=The Memory is the Last Thing to Go
TTITLE5=Pack Up the Moon
TTITLE6=I Can Still See it From Here
TTITLE7=I Made a Wish
TTITLE8=Once in a Lifetime Girl
TTITLE9=That's What She Said
TTITLE10=Stars In Our Eyes
TTITLE11=Just One Moon
EXTD=
EXTT0=
EXTT1=
EXTT2=
EXTT3=
EXTT4=
EXTT5=
EXTT6=
EXTT7=
EXTT8=
EXTT9=
EXTT10=
EXTT11=
PLAYORDER=
